HIERARCHY
ROOT Hips
{
	OFFSET 0.000000 0.000000 0.000000
	CHANNELS 6 Xposition Yposition Zposition Xrotation Yrotation Zrotation
	JOINT LeftUpLeg_virtual
	{
		OFFSET 0.000000 0.000000 0.000000
		CHANNELS 3 Xrotation Yrotation Zrotation
		JOINT LeftUpLeg
		{
			OFFSET 15.427100 -6.655098 0.678600
			CHANNELS 3 Xrotation Yrotation Zrotation
			JOINT LeftLeg
			{
				OFFSET 4.081073 -39.591068 13.024000
				CHANNELS 3 Xrotation Yrotation Zrotation
				JOINT LeftFoot
				{
					OFFSET -4.081074 -37.707932 -15.979700
					CHANNELS 3 Xrotation Yrotation Zrotation
					JOINT LeftToeBase
					{
						OFFSET 5.346399 -15.068900 20.645000
						CHANNELS 3 Xrotation Yrotation Zrotation
						JOINT LeftToe_End
						{
							OFFSET 2.754700 0.931300 11.300900
							CHANNELS 3 Xrotation Yrotation Zrotation
							End Site
							{
								OFFSET 0 0 0
							}
						}
					}
				}
			}
		}
	}
	JOINT RightUpLeg_virtual
	{
		OFFSET 0.000000 0.000000 0.000000
		CHANNELS 3 Xrotation Yrotation Zrotation
		JOINT RightUpLeg
		{
			OFFSET -15.569500 -6.655098 0.678600
			CHANNELS 3 Xrotation Yrotation Zrotation
			JOINT RightLeg
			{
				OFFSET -4.081825 -39.591045 13.023800
				CHANNELS 3 Xrotation Yrotation Zrotation
				JOINT RightFoot
				{
					OFFSET 4.081824 -37.707954 -15.979600
					CHANNELS 3 Xrotation Yrotation Zrotation
					JOINT RightToeBase
					{
						OFFSET -5.346400 -15.068900 20.645000
						CHANNELS 3 Xrotation Yrotation Zrotation
						JOINT RightToe_End
						{
							OFFSET -2.754700 0.931300 11.300900
							CHANNELS 3 Xrotation Yrotation Zrotation
							End Site
							{
								OFFSET 0 0 0
							}
						}
					}
				}
			}
		}
	}
	JOINT Spine_virtual
	{
		OFFSET 0.000000 0.000000 0.000000
		CHANNELS 3 Xrotation Yrotation Zrotation
		JOINT Spine
		{
			OFFSET -0.279200 12.230698 -2.892100
			CHANNELS 3 Xrotation Yrotation Zrotation
			JOINT Spine1
			{
				OFFSET -0.232667 10.192268 -1.242267
				CHANNELS 3 Xrotation Yrotation Zrotation
				JOINT Spine1_split
				{
					OFFSET -0.232667 10.192268 -1.242267
					CHANNELS 3 Xrotation Yrotation Zrotation
					JOINT Spine2
					{
						OFFSET -0.232667 10.192268 -1.242267
						CHANNELS 3 Xrotation Yrotation Zrotation
						JOINT Neck_virtual
						{
							OFFSET 0.000000 0.000000 0.000000
							CHANNELS 3 Xrotation Yrotation Zrotation
							JOINT Neck
							{
								OFFSET -0.418800 17.814194 8.416900
								CHANNELS 3 Xrotation Yrotation Zrotation
								JOINT Head
								{
									OFFSET 0.000000 7.031097 3.806800
									CHANNELS 3 Xrotation Yrotation Zrotation
									JOINT HeadTop_End
									{
										OFFSET 0.000000 24.646606 12.978600
										CHANNELS 3 Xrotation Yrotation Zrotation
										End Site
										{
											OFFSET 0 0 0
										}
									}
								}
							}
						}
						JOINT LeftShoulder_virtual
						{
							OFFSET 0.000000 0.000000 0.000000
							CHANNELS 3 Xrotation Yrotation Zrotation
							JOINT LeftShoulder
							{
								OFFSET 8.476499 7.247704 -3.868750
								CHANNELS 3 Xrotation Yrotation Zrotation
								JOINT LeftShoulder_split
								{
									OFFSET 8.476499 7.247704 -3.868750
									CHANNELS 3 Xrotation Yrotation Zrotation
									JOINT LeftArm
									{
										OFFSET 9.308998 -2.777710 0.208600
										CHANNELS 3 Xrotation Yrotation Zrotation
										JOINT LeftForeArm
										{
											OFFSET 29.972298 0.000000 0.000000
											CHANNELS 3 Xrotation Yrotation Zrotation
											JOINT LeftHand
											{
												OFFSET 26.026505 0.000000 0.000000
												CHANNELS 3 Xrotation Yrotation Zrotation
												End Site
												{
													OFFSET 0 0 0
												}
											}
										}
									}
								}
							}
						}
						JOINT RightShoulder_virtual
						{
							OFFSET 0.000000 0.000000 0.000000
							CHANNELS 3 Xrotation Yrotation Zrotation
							JOINT RightShoulder
							{
								OFFSET -7.570500 7.247704 -3.868750
								CHANNELS 3 Xrotation Yrotation Zrotation
								JOINT RightShoulder_split
								{
									OFFSET -7.570500 7.247704 -3.868750
									CHANNELS 3 Xrotation Yrotation Zrotation
									JOINT RightArm
									{
										OFFSET -9.308998 -2.777710 0.208500
										CHANNELS 3 Xrotation Yrotation Zrotation
										JOINT RightForeArm
										{
											OFFSET -29.972300 0.000000 0.000000
											CHANNELS 3 Xrotation Yrotation Zrotation
											JOINT RightHand
											{
												OFFSET -26.026505 0.000000 0.000000
												CHANNELS 3 Xrotation Yrotation Zrotation
												End Site
												{
													OFFSET 0 0 0
												}
											}
										}
									}
								}
							}
						}
					}
				}
			}
		}
	}
}
MOTION
Frames: 4
Frame Time: 0.03333333
4.834964 80.061340 -0.202484 0.000000 0.000000 0.000000 7.947643 -12.103465 2.230538 -45.699819 5.589901 20.221091 36.872021 5.193734 5.783459 3.944807 0.068339 -18.852097 0.498891 0.595237 -0.592875 0.000000 0.000000 0.000000 7.368251 -12.165234 2.466763 -21.851390 -2.210524 -38.781326 30.568935 -0.263024 1.056312 -10.451844 -6.064691 29.889772 -0.526848 1.139200 0.786262 0.000000 0.000000 0.000000 8.853231 -10.429223 1.855683 8.067421 3.015323 -2.490902 6.299845 1.614799 -1.214092 0.470800 1.951817 0.394969 0.000000 0.000000 0.000000 6.495772 1.277044 -0.546226 -1.814934 -0.079559 -3.295057 -10.858642 -3.530238 4.417693 0.000000 0.000000 0.000000 6.104877 1.703608 -1.030190 5.314211 -36.245440 3.807851 -2.322903 -3.514436 -1.436186 -77.695786 -33.618837 -28.221990 -0.175809 -23.785985 1.529990 0.000000 0.000000 0.000000 5.504251 1.497459 -0.677367 5.368220 28.375261 -19.607516 2.458624 -0.467851 1.586742 -38.247297 30.326221 12.426264 0.795810 39.605320 -0.512632 0.000000 0.000000 0.000000 
5.044685 79.882576 -0.094334 0.000000 0.000000 0.000000 8.236246 -11.825079 2.047459 -46.664477 5.559893 20.380634 37.655622 5.073248 5.656070 3.612776 -0.242294 -18.583843 0.533622 0.578331 -0.604222 0.000000 0.000000 0.000000 7.573753 -11.927012 2.275300 -22.077209 -2.155110 -38.822857 30.910346 -0.263639 1.000895 -10.515880 -6.330051 29.838368 -0.358430 1.176734 0.783110 0.000000 0.000000 0.000000 9.289146 -10.487078 1.702906 8.130085 2.779118 -2.560687 6.247038 1.343556 -1.246550 0.556165 2.192838 0.330754 0.000000 0.000000 0.000000 6.356585 1.029727 -0.590956 -2.557317 -0.350214 -2.622002 -11.159958 -3.692834 4.875280 0.000000 0.000000 0.000000 5.971643 1.517401 -1.127044 5.196851 -36.575858 4.013215 -0.884480 -3.756445 -0.879208 -76.917301 -33.711413 -26.910710 -0.240257 -23.519034 1.649868 0.000000 0.000000 0.000000 5.588021 1.389678 -0.764647 5.022954 28.724921 -19.494557 2.814901 -1.177328 1.554691 -40.739322 28.316088 13.803493 0.721301 41.091945 -0.331278 0.000000 0.000000 0.000000 
5.201524 79.661789 0.033195 0.000000 0.000000 0.000000 8.422427 -11.506774 1.814847 -47.475849 5.556445 20.555550 38.305972 4.970388 5.610309 3.180181 -0.431788 -18.273230 0.536176 0.567774 -0.647715 0.000000 0.000000 0.000000 7.725925 -11.557030 2.018646 -22.151661 -2.102879 -38.841339 31.136944 -0.343153 0.921819 -10.668477 -6.627142 29.687796 -0.136348 1.199084 0.834328 0.000000 0.000000 0.000000 9.631785 -10.530724 1.525819 8.210522 2.575177 -2.506191 6.263452 1.160685 -1.235988 0.761054 2.091032 0.277116 0.000000 0.000000 0.000000 6.223583 0.859158 -0.633619 -3.523286 -0.725964 -1.757253 -11.420163 -3.730946 5.256382 0.000000 0.000000 0.000000 6.014078 1.334035 -1.202275 4.956962 -36.560083 3.875722 0.099527 -3.721063 -0.433950 -76.293124 -33.975574 -26.504923 -0.549406 -22.645883 1.478395 0.000000 0.000000 0.000000 5.780374 1.382334 -0.799957 4.493966 28.604233 -18.765130 2.868188 -1.429210 1.272186 -42.771806 27.265203 15.474550 0.702713 41.219218 -0.262611 0.000000 0.000000 0.000000 
5.322227 79.424248 0.155220 0.000000 0.000000 0.000000 8.468799 -11.266024 1.559118 -48.051470 5.587015 20.753683 38.792445 4.909736 5.635523 2.724745 -0.502377 -17.955393 0.420262 0.565634 -0.689206 0.000000 0.000000 0.000000 7.825573 -11.192910 1.748821 -22.140847 -2.064950 -38.866283 31.228742 -0.455267 0.834638 -10.804298 -6.866762 29.541787 0.066661 1.204381 0.921931 0.000000 0.000000 0.000000 9.805148 -10.573209 1.364076 8.292504 2.449780 -2.364054 6.335396 1.112891 -1.195415 0.958859 1.985548 0.178035 0.000000 0.000000 0.000000 6.122355 0.812347 -0.675693 -4.606084 -1.153697 -0.992347 -11.573834 -3.656379 5.525513 0.000000 0.000000 0.000000 6.199165 1.203610 -1.240300 4.687183 -36.267840 3.682972 0.509644 -3.331818 -0.316941 -76.121345 -34.772712 -26.811692 -0.958384 -21.570478 1.121761 0.000000 0.000000 0.000000 6.051337 1.459056 -0.790021 3.968550 28.180765 -17.861985 2.597297 -1.317771 0.772864 -43.644038 27.595088 16.800653 0.839433 39.845749 -0.401445 0.000000 0.000000 0.000000 
